<?xml version="1.0" standalone="no"?>
<!DOCTYPE svg PUBLIC "-//W3C//DTD SVG 20010904//EN"
 "http://www.w3.org/TR/2001/REC-SVG-20010904/DTD/svg10.dtd">
<svg version="1.0" xmlns="http://www.w3.org/2000/svg"
 width="204.000000pt" height="200.000000pt" viewBox="0 0 204.000000 200.000000"
 preserveAspectRatio="xMidYMid meet">
<metadata>
Created by potrace 1.16, written by Peter Selinger 2001-2019
</metadata>
<g transform="translate(0.000000,200.000000) scale(0.100000,-0.100000)"
fill="#000000" stroke="none">
<path d="M835 1955 c-190 -36 -383 -141 -522 -283 -112 -115 -181 -242 -229
-418 -36 -133 -39 -337 -6 -456 52 -191 149 -356 280 -479 237 -222 594 -311
897 -224 170 49 320 139 441 266 78 83 113 135 167 250 92 195 113 392 68 625
-19 100 -105 266 -199 390 -189 247 -578 389 -897 329z m379 -95 c237 -63 415
-196 533 -396 29 -48 51 -89 49 -91 -1 -2 -18 3 -37 9 -20 8 -82 13 -149 13
-114 0 -117 -1 -192 -38 -88 -43 -133 -90 -179 -183 -32 -65 -35 -107 -7 -112
11 -2 26 18 52 71 56 117 133 181 251 207 54 12 174 0 246 -25 45 -16 47 -18
64 -76 19 -69 37 -223 28 -245 -3 -9 -12 -13 -22 -8 -72 29 -149 46 -237 51
-113 6 -144 -3 -144 -42 0 -54 129 -122 291 -152 l90 -17 -6 -34 c-3 -18 -15
-58 -27 -87 -24 -63 -15 -59 -218 -102 -116 -25 -143 -27 -370 -27 -219 0
-255 2 -336 21 -268 65 -487 187 -683 379 -74 73 -83 85 -78 110 3 16 11 59
17 95 16 89 19 93 61 75 98 -41 288 -56 325 -25 55 45 -65 136 -230 175 l-75
17 27 50 c15 27 58 83 97 124 l69 75 43 -6 c24 -3 77 -20 118 -37 60 -24 86
-43 133 -94 77 -82 95 -132 91 -257 -3 -77 0 -93 14 -102 33 -21 42 7 42 127
0 102 -2 117 -28 168 -42 87 -121 162 -212 204 -43 19 -86 35 -96 35 -101 0
170 142 324 170 82 15 271 4 361 -20z m-957 -1002 c27 -24 72 -60 100 -81 l52
-38 -60 -121 -60 -121 -26 38 c-34 50 -97 188 -113 247 -12 44 -11 48 15 82
15 20 31 36 36 36 5 0 30 -19 56 -42z m283 -191 c47 -24 115 -55 153 -68 37
-13 67 -28 67 -34 0 -10 -101 -357 -105 -363 -11 -13 -176 94 -253 163 -84 76
-84 70 -11 217 35 70 64 128 64 128 1 0 39 -20 85 -43z m394 -132 c43 -8 93
-15 111 -15 19 0 36 -3 38 -7 2 -5 -6 -91 -19 -193 -13 -102 -23 -187 -24
-189 0 -2 -42 -1 -92 2 -82 5 -219 35 -234 50 -4 4 76 293 101 365 3 8 13 11
23 7 11 -3 54 -12 96 -20z m756 -34 l0 -59 -74 -69 c-41 -37 -88 -76 -105 -86
l-31 -18 0 128 0 129 83 16 c134 25 127 28 127 -41z m-262 -123 l-3 -143 -60
-29 c-62 -29 -252 -82 -262 -72 -3 3 4 85 16 183 12 98 21 181 21 185 0 4 51
9 113 11 61 1 127 4 145 5 l33 2 -3 -142z"/>
</g>
</svg>
