<?xml version="1.0" standalone="no"?>
<!DOCTYPE svg PUBLIC "-//W3C//DTD SVG 20010904//EN"
 "http://www.w3.org/TR/2001/REC-SVG-20010904/DTD/svg10.dtd">
<svg version="1.0" xmlns="http://www.w3.org/2000/svg"
 width="256.000000pt" height="256.000000pt" viewBox="0 0 256.000000 256.000000"
 preserveAspectRatio="xMidYMid meet">
<metadata>
Created by potrace 1.16, written by Peter Selinger 2001-2019
</metadata>
<g transform="translate(0.000000,256.000000) scale(0.100000,-0.100000)"
fill="#000000" stroke="none">
<path d="M1155 2528 c-512 -40 -954 -411 -1089 -916 -200 -748 323 -1494 1093
-1561 580 -51 1122 308 1295 857 39 124 56 240 56 382 0 341 -124 645 -360
880 -262 262 -612 388 -995 358z m291 -123 c438 -75 782 -389 900 -820 25 -92
28 -115 28 -280 0 -163 -3 -189 -27 -280 -37 -137 -128 -317 -217 -427 -161
-199 -387 -336 -640 -388 -148 -31 -380 -24 -519 14 -356 99 -646 371 -764
716 -46 135 -60 238 -54 405 5 163 22 244 77 382 142 354 489 627 866 682 96
14 255 12 350 -4z"/>
<path d="M698 2140 c-119 -21 -239 -112 -291 -222 -35 -73 -34 -83 2 -27 71
109 162 163 276 163 55 0 82 -6 126 -27 31 -15 64 -36 74 -47 18 -20 17 -20
-48 -20 -128 0 -237 -70 -288 -184 -63 -144 5 -322 149 -393 76 -37 181 -39
259 -4 99 44 179 164 204 305 45 262 -198 502 -463 456z"/>
<path d="M1696 2120 c-63 -16 -153 -70 -197 -117 -92 -100 -127 -240 -95 -378
40 -166 155 -265 311 -265 76 0 138 26 199 81 71 65 100 130 100 224 0 94 -29
159 -100 224 -67 62 -131 85 -219 79 -75 -5 -73 7 9 50 41 21 65 26 126 26 98
1 161 -27 230 -100 67 -71 101 -148 108 -244 6 -88 20 -70 21 26 3 213 -164
389 -377 400 -42 2 -94 -1 -116 -6z"/>
<path d="M1885 1233 c-76 -23 -107 -49 -103 -87 3 -27 11 -35 63 -61 54 -27
71 -30 176 -34 175 -5 289 34 289 99 0 36 -34 61 -109 84 -71 21 -247 20 -316
-1z"/>
<path d="M410 1219 c-61 -12 -131 -49 -141 -75 -25 -70 140 -135 305 -121 186
16 275 84 196 150 -56 47 -236 70 -360 46z"/>
<path d="M1332 917 l-22 -23 85 -84 c47 -47 85 -88 85 -92 0 -4 -65 -62 -145
-129 -80 -68 -145 -125 -145 -128 0 -3 12 -19 26 -34 l25 -29 32 25 c110 85
312 265 312 277 0 8 -52 66 -116 127 l-116 113 -21 -23z"/>
</g>
</svg>
