<?xml version="1.0" standalone="no"?>
<!DOCTYPE svg PUBLIC "-//W3C//DTD SVG 20010904//EN"
 "http://www.w3.org/TR/2001/REC-SVG-20010904/DTD/svg10.dtd">
<svg version="1.0" xmlns="http://www.w3.org/2000/svg"
 width="500.000000pt" height="500.000000pt" viewBox="0 0 500.000000 500.000000"
 preserveAspectRatio="xMidYMid meet">
<metadata>
Created by potrace 1.16, written by Peter Selinger 2001-2019
</metadata>
<g transform="translate(0.000000,500.000000) scale(0.100000,-0.100000)"
fill="#000000" stroke="none">
<path d="M2581 4620 c-472 -33 -905 -209 -1204 -489 -315 -297 -515 -738 -587
-1293 -28 -222 -35 -460 -20 -653 8 -88 14 -172 14 -187 1 -27 -12 -34 -349
-191 -441 -206 -435 -203 -435 -226 0 -46 554 -418 954 -641 494 -275 1055
-483 1496 -555 184 -29 641 -13 834 30 706 158 1280 624 1550 1259 59 137 110
305 137 449 27 142 37 465 20 618 -35 308 -162 663 -327 917 -101 156 -321
389 -501 533 -252 201 -658 375 -978 419 -109 15 -453 20 -604 10z m504 -225
c756 -116 1387 -680 1574 -1408 51 -198 64 -316 58 -542 -6 -226 -29 -360 -92
-546 -116 -336 -341 -653 -625 -878 -285 -227 -678 -390 -1013 -422 -186 -17
-573 -7 -698 19 -238 50 -529 138 -729 222 -292 122 -651 301 -880 438 -150
90 -430 273 -430 281 0 4 116 62 257 129 142 67 294 142 338 165 l80 43 -5
135 c-3 74 -4 269 -4 434 1 257 4 319 23 430 108 648 401 1087 888 1329 207
103 447 164 753 190 90 8 408 -4 505 -19z"/>
<path d="M1732 3319 c-93 -12 -159 -34 -227 -74 -158 -95 -232 -236 -223 -425
5 -98 27 -156 84 -214 75 -77 180 -107 301 -86 91 15 143 40 202 95 71 66 95
127 95 240 0 102 -13 137 -83 216 -22 26 -37 49 -34 53 14 14 133 5 188 -14
72 -25 134 -64 234 -147 42 -36 85 -69 95 -75 18 -10 19 -7 13 33 -9 71 -82
204 -147 269 -120 120 -269 159 -498 129z"/>
<path d="M3510 3160 c-194 -25 -350 -121 -418 -256 -51 -103 -65 -158 -60
-244 8 -137 92 -257 209 -295 76 -26 207 -18 281 17 74 35 138 94 172 162 26
51 28 62 24 148 -4 105 -18 142 -79 211 -46 53 -39 67 33 67 95 0 239 -74 378
-194 76 -65 95 -71 85 -23 -11 50 -70 171 -114 234 -66 94 -174 151 -325 172
-84 12 -103 12 -186 1z"/>
<path d="M3362 2134 c-134 -36 -198 -107 -190 -211 9 -102 113 -198 271 -249
147 -47 379 -44 498 7 54 24 115 84 125 124 34 136 -125 279 -366 331 -83 18
-269 17 -338 -2z"/>
</g>
</svg>
